<?xml version="1.0" encoding="utf-8"?>
<!-- Generator: Adobe Illustrator 17.1.0, SVG Export Plug-In . SVG Version: 6.00 Build 0)  -->
<!DOCTYPE svg PUBLIC "-//W3C//DTD SVG 1.1//EN" "http://www.w3.org/Graphics/SVG/1.1/DTD/svg11.dtd">
<svg version="1.1" id="Layer_1" xmlns="http://www.w3.org/2000/svg" xmlns:xlink="http://www.w3.org/1999/xlink" x="0px" y="0px"
	 width="32px" height="32px" viewBox="0 0 32 32" enable-background="new 0 0 32 32" xml:space="preserve">
<g>
	<path d="M0,3c0-1.7,1.3-3,3-3h6c1.6,0,3,1.3,3,3v26c0,1.6-1.4,3-3,3H3c-1.7,0-3-1.4-3-3V3z M20,3c0-1.7,1.4-3,3-3h6
		c1.6,0,3,1.3,3,3v26c0,1.6-1.4,3-3,3h-6c-1.6,0-3-1.4-3-3V3z"/>
</g>
</svg>
