<svg id="plangular-icon-sprite" xmlns="http://www.w3.org/2000/svg" viewBox="0 0 32 160" width="32" height="160">

  <svg id="play" class="plangular-icon plangular-icon-play" xmlns="http://www.w3.org/2000/svg" viewBox="0 0 32 32" width="32" height="32" y="32">
    <path d="M0,5c0-2.8,2-4,4.5-2.8l23.1,11.5c2.5,1.2,2.5,3.2,0,4.5L4.5,29.8C2,31,0,29.8,0,27V5z" />
  </svg>

  <svg id="pause" class="plangular-icon plangular-icon-pause" xmlns="http://www.w3.org/2000/svg" viewBox="0 0 32 32" width="32" height="32" y="64">
    <path d="M0,3c0-1.7,1.3-3,3-3h6c1.6,0,3,1.3,3,3v26c0,1.6-1.4,3-3,3H3c-1.7,0-3-1.4-3-3V3z M20,3c0-1.7,1.4-3,3-3h6
		c1.6,0,3,1.3,3,3v26c0,1.6-1.4,3-3,3h-6c-1.6,0-3-1.4-3-3V3z" />
  </svg>

</svg>

